<!--
<svg width="22" height="22" viewBox="0 0 22 22" xmlns="http://www.w3.org/2000/svg">
>>>>>>> sally_stable_6433
<path fill-rule="evenodd" clip-rule="evenodd" d="M6.84074 5.49992H6.81762L3.42398 2.10629C3.06002 1.74232 2.47001 1.74223 2.10617 2.10608C1.74232 2.46992 1.74241 3.05993 2.10638 3.42389L4.1824 5.49992H3.66668C2.65415 5.49992 1.83334 6.32073 1.83334 7.33325V14.6666C1.83334 15.6791 2.65415 16.4999 3.66668 16.4999H13.75C14.154 16.4999 14.5274 16.3693 14.8304 16.1479L18.576 19.8936C18.94 20.2575 19.53 20.2576 19.8939 19.8938C20.2577 19.5299 20.2576 18.9399 19.8936 18.5759L15.5833 14.2656V14.2425L13.75 12.4092V12.4323L8.65095 7.33325H8.67407L6.84074 5.49992ZM13.75 9.77398V9.16659V7.33325H11.3093L9.47595 5.49992H13.75C14.7625 5.49992 15.5833 6.32073 15.5833 7.33325V8.11897L18.7952 6.28361C19.2348 6.03243 19.7947 6.18515 20.0459 6.62471C20.125 6.76321 20.1667 6.91998 20.1667 7.0795V14.9203C20.1667 15.2643 19.9772 15.5641 19.6969 15.7209L15.9614 11.9853L18.3333 13.3408V8.65908L15.5833 10.2305V11.6073L13.75 9.77398ZM3.66668 7.33325H6.01574L13.3491 14.6666H3.66668V7.33325Z" />
</svg>
 -->

<svg id="Komponente_1833_9" data-name="Komponente 1833 – 9" xmlns="http://www.w3.org/2000/svg" width="48" height="48" viewBox="0 0 48 48">
  <g id="Pfad_109" data-name="Pfad 109" fill="none">
    <path d="M24,0A24,24,0,1,1,0,24,24,24,0,0,1,24,0Z" stroke="none"/>
    <path d="M 24 1 C 20.89458084106445 1 17.8825798034668 1.607978820800781 15.04766845703125 2.807041168212891 C 12.3089714050293 3.965419769287109 9.849151611328125 5.623939514160156 7.736549377441406 7.736549377441406 C 5.623939514160156 9.849151611328125 3.965419769287109 12.3089714050293 2.807041168212891 15.04766845703125 C 1.607978820800781 17.8825798034668 1 20.89458084106445 1 24 C 1 27.10541915893555 1.607978820800781 30.1174201965332 2.807041168212891 32.95233154296875 C 3.965419769287109 35.6910285949707 5.623939514160156 38.15084838867188 7.736549377441406 40.26345062255859 C 9.849151611328125 42.37606048583984 12.3089714050293 44.03458023071289 15.04766845703125 45.19295883178711 C 17.8825798034668 46.39202117919922 20.89458084106445 47 24 47 C 27.10541915893555 47 30.1174201965332 46.39202117919922 32.95233154296875 45.19295883178711 C 35.6910285949707 44.03458023071289 38.15084838867188 42.37606048583984 40.26345062255859 40.26345062255859 C 42.37606048583984 38.15084838867188 44.03458023071289 35.6910285949707 45.19295883178711 32.95233154296875 C 46.39202117919922 30.1174201965332 47 27.10541915893555 47 24 C 47 20.89458084106445 46.39202117919922 17.8825798034668 45.19295883178711 15.04766845703125 C 44.03458023071289 12.3089714050293 42.37606048583984 9.849151611328125 40.26345062255859 7.736549377441406 C 38.15084838867188 5.623939514160156 35.6910285949707 3.965419769287109 32.95233154296875 2.807041168212891 C 30.1174201965332 1.607978820800781 27.10541915893555 1 24 1 M 24 0 C 37.25482940673828 0 48 10.74517059326172 48 24 C 48 37.25482940673828 37.25482940673828 48 24 48 C 10.74517059326172 48 0 37.25482940673828 0 24 C 0 10.74517059326172 10.74517059326172 0 24 0 Z" stroke="none" fill="#fff"/>
  </g>
  <g id="camera_small" transform="translate(12 12)">
    <rect id="Rechteck_5" data-name="Rechteck 5" width="24" height="24" fill="none"/>
    <g id="Gruppe_175" data-name="Gruppe 175" transform="translate(10938.491 10120.992)">
      <path id="Pfad_91" data-name="Pfad 91" d="M1.35,0H13.828a1.326,1.326,0,0,1,1.35,1.3v9.415a1.326,1.326,0,0,1-1.35,1.3H1.35A1.326,1.326,0,0,1,0,10.716V1.3A1.326,1.326,0,0,1,1.35,0Z" transform="translate(-10937 -10115)" fill="none" stroke="#fff" stroke-width="1"/>
      <path id="Pfad_96" data-name="Pfad 96" d="M.024,8.122l5.814,3.724V0L0,3.742" transform="translate(-10921.822 -10114.829)" fill="none" stroke="#fff" stroke-linecap="round" stroke-linejoin="round" stroke-width="1"/>
    </g>
    <line id="Linie_9" data-name="Linie 9" y1="18" x2="18" transform="translate(3.001 3.001)" fill="none" stroke="#fff" stroke-width="1"/>
  </g>
</svg>
