<!-- <svg width="22" height="22" viewBox="0 0 22 22" fill="none" xmlns="http://www.w3.org/2000/svg">
<path fill-rule="evenodd" clip-rule="evenodd" d="M13.75 5.5H3.66668C2.65415 5.5 1.83334 6.32081 1.83334 7.33333V14.6667C1.83334 15.6792 2.65415 16.5 3.66668 16.5H13.75C14.7625 16.5 15.5833 15.6792 15.5833 14.6667V13.881L18.7952 15.7163C18.9337 15.7955 19.0905 15.8371 19.25 15.8371C19.7563 15.8371 20.1667 15.4267 20.1667 14.9204V7.07958C20.1667 6.92006 20.125 6.76329 20.0459 6.62479C19.7947 6.18523 19.2348 6.03252 18.7952 6.28369L15.5833 8.11905V7.33333C15.5833 6.32081 14.7625 5.5 13.75 5.5ZM13.75 9.16667V12.8333V14.6667H3.66668V7.33333H13.75V9.16667ZM18.3333 13.3408L15.5833 11.7694V10.2306L18.3333 8.65916V13.3408Z" />
</svg>
 -->
<svg id="Komponente_1833_9" data-name="Komponente 1833 – 9" xmlns="http://www.w3.org/2000/svg" width="48" height="48" viewBox="0 0 48 48">
  <g id="Pfad_109" data-name="Pfad 109" fill="#fff">
    <path d="M 24 47.5 C 20.82729911804199 47.5 17.74976921081543 46.87873077392578 14.85289001464844 45.65346145629883 C 12.05459022521973 44.46987915039062 9.541350364685059 42.77537155151367 7.382989883422852 40.61700820922852 C 5.224629878997803 38.45864868164062 3.530119895935059 35.94541168212891 2.346539974212646 33.14710998535156 C 1.121269941329956 30.25023078918457 0.5 27.17270088195801 0.5 24 C 0.5 20.82729911804199 1.121269941329956 17.74976921081543 2.346539974212646 14.85289001464844 C 3.530119895935059 12.05459022521973 5.224629878997803 9.541350364685059 7.382989883422852 7.382989883422852 C 9.541350364685059 5.224629878997803 12.05459022521973 3.530119895935059 14.85289001464844 2.346539974212646 C 17.74976921081543 1.121269941329956 20.82729911804199 0.5 24 0.5 C 27.17270088195801 0.5 30.25023078918457 1.121269941329956 33.14710998535156 2.346539974212646 C 35.94541168212891 3.530119895935059 38.45864868164062 5.224629878997803 40.61700820922852 7.382989883422852 C 42.77537155151367 9.541350364685059 44.46987915039062 12.05459022521973 45.65346145629883 14.85289001464844 C 46.87873077392578 17.74976921081543 47.5 20.82729911804199 47.5 24 C 47.5 27.17270088195801 46.87873077392578 30.25023078918457 45.65346145629883 33.14710998535156 C 44.46987915039062 35.94541168212891 42.77537155151367 38.45864868164062 40.61700820922852 40.61700820922852 C 38.45864868164062 42.77537155151367 35.94541168212891 44.46987915039062 33.14710998535156 45.65346145629883 C 30.25023078918457 46.87873077392578 27.17270088195801 47.5 24 47.5 Z" stroke="none"/>
    <path d="M 24 1 C 20.89458084106445 1 17.8825798034668 1.607978820800781 15.04766845703125 2.807041168212891 C 12.3089714050293 3.965419769287109 9.849151611328125 5.623939514160156 7.736549377441406 7.736549377441406 C 5.623939514160156 9.849151611328125 3.965419769287109 12.3089714050293 2.807041168212891 15.04766845703125 C 1.607978820800781 17.8825798034668 1 20.89458084106445 1 24 C 1 27.10541915893555 1.607978820800781 30.1174201965332 2.807041168212891 32.95233154296875 C 3.965419769287109 35.6910285949707 5.623939514160156 38.15084838867188 7.736549377441406 40.26345062255859 C 9.849151611328125 42.37606048583984 12.3089714050293 44.03458023071289 15.04766845703125 45.19295883178711 C 17.8825798034668 46.39202117919922 20.89458084106445 47 24 47 C 27.10541915893555 47 30.1174201965332 46.39202117919922 32.95233154296875 45.19295883178711 C 35.6910285949707 44.03458023071289 38.15084838867188 42.37606048583984 40.26345062255859 40.26345062255859 C 42.37606048583984 38.15084838867188 44.03458023071289 35.6910285949707 45.19295883178711 32.95233154296875 C 46.39202117919922 30.1174201965332 47 27.10541915893555 47 24 C 47 20.89458084106445 46.39202117919922 17.8825798034668 45.19295883178711 15.04766845703125 C 44.03458023071289 12.3089714050293 42.37606048583984 9.849151611328125 40.26345062255859 7.736549377441406 C 38.15084838867188 5.623939514160156 35.6910285949707 3.965419769287109 32.95233154296875 2.807041168212891 C 30.1174201965332 1.607978820800781 27.10541915893555 1 24 1 M 24 0 C 37.25482940673828 0 48 10.74517059326172 48 24 C 48 37.25482940673828 37.25482940673828 48 24 48 C 10.74517059326172 48 0 37.25482940673828 0 24 C 0 10.74517059326172 10.74517059326172 0 24 0 Z" stroke="none" fill="#fff"/>
  </g>
  <g id="camera_small" transform="translate(12 12)">
    <rect id="Rechteck_5" data-name="Rechteck 5" width="24" height="24" fill="none"/>
    <g id="Gruppe_175" data-name="Gruppe 175" transform="translate(10938.491 10120.992)">
      <path id="Pfad_91" data-name="Pfad 91" d="M1.35,0H13.828a1.326,1.326,0,0,1,1.35,1.3v9.415a1.326,1.326,0,0,1-1.35,1.3H1.35A1.326,1.326,0,0,1,0,10.716V1.3A1.326,1.326,0,0,1,1.35,0Z" transform="translate(-10937 -10115)" fill="none" stroke="#000" stroke-width="1"/>
      <path id="Pfad_96" data-name="Pfad 96" d="M.024,8.122l5.814,3.724V0L0,3.742" transform="translate(-10921.822 -10114.829)" fill="none" stroke="#000" stroke-linecap="round" stroke-linejoin="round" stroke-width="1"/>
    </g>
  </g>
</svg>
