<!-- <svg xmlns="http://www.w3.org/2000/svg" width="22" height="22" viewBox="0 0 22 22">
<path fill-rule="evenodd" clip-rule="evenodd" d="M7.33331 8.65092V11C7.33331 12.711 8.5053 14.1483 10.0903 14.5529C10.0857 14.5902 10.0833 14.6281 10.0833 14.6666V16.4239C7.48208 15.9875 5.49998 13.7252 5.49998 11C5.49998 10.4937 5.08957 10.0833 4.58331 10.0833C4.07705 10.0833 3.66665 10.4937 3.66665 11C3.66665 14.7396 6.46586 17.8255 10.0833 18.2766V19.25C10.0833 19.7562 10.4937 20.1666 11 20.1666C11.5062 20.1666 11.9166 19.7562 11.9166 19.25V18.2766C13.2504 18.1103 14.4729 17.5858 15.4849 16.8025L18.576 19.8936C18.94 20.2576 19.53 20.2577 19.8938 19.8938C20.2577 19.53 20.2576 18.94 19.8936 18.576L16.8025 15.4849C16.8058 15.4805 16.8092 15.4762 16.8125 15.4718L15.5016 14.1608C15.4984 14.1653 15.4952 14.1699 15.492 14.1744L14.1668 12.8492C14.1697 12.8444 14.1725 12.8395 14.1754 12.8346L12.7803 11.4396C12.7788 11.4457 12.7772 11.4519 12.7756 11.458L9.16665 7.84904V7.82592L7.33331 5.99259V6.01571L3.42395 2.10635C3.05999 1.74238 2.46998 1.74229 2.10614 2.10614C1.74229 2.46998 1.74238 3.05999 2.10635 3.42395L7.33331 8.65092ZM9.16665 10.4843V11C9.16665 12.0125 9.98746 12.8333 11 12.8333C11.1581 12.8333 11.3116 12.8133 11.458 12.7756L9.16665 10.4843ZM12.8492 14.1668C12.5591 14.3366 12.2435 14.4677 11.9097 14.5529C11.9143 14.5902 11.9166 14.6281 11.9166 14.6666V16.4239C12.7471 16.2846 13.5145 15.9592 14.1744 15.492L12.8492 14.1668ZM14.6666 10.6907L12.8333 8.85737V5.49998C12.8333 4.48746 12.0125 3.66665 11 3.66665C10.0851 3.66665 9.3267 4.33681 9.18897 5.21303L7.7592 3.78326C8.37493 2.6233 9.5952 1.83331 11 1.83331C13.025 1.83331 14.6666 3.47494 14.6666 5.49998V10.6907ZM16.3316 12.3557L17.7787 13.8027C18.1361 12.9392 18.3333 11.9926 18.3333 11C18.3333 10.4937 17.9229 10.0833 17.4166 10.0833C16.9104 10.0833 16.5 10.4937 16.5 11C16.5 11.4678 16.4416 11.922 16.3316 12.3557Z"/>
</svg> -->

<svg id="Komponente_1832_7" data-name="Komponente 1832 – 7" xmlns="http://www.w3.org/2000/svg" width="48" height="48" viewBox="0 0 48 48">
  <g id="Pfad_109" data-name="Pfad 109" fill="none">
    <path d="M24,0A24,24,0,1,1,0,24,24,24,0,0,1,24,0Z" stroke="none"/>
    <path d="M 24 1 C 20.89458084106445 1 17.8825798034668 1.607978820800781 15.04766845703125 2.807041168212891 C 12.3089714050293 3.965419769287109 9.849151611328125 5.623939514160156 7.736549377441406 7.736549377441406 C 5.623939514160156 9.849151611328125 3.965419769287109 12.3089714050293 2.807041168212891 15.04766845703125 C 1.607978820800781 17.8825798034668 1 20.89458084106445 1 24 C 1 27.10541915893555 1.607978820800781 30.1174201965332 2.807041168212891 32.95233154296875 C 3.965419769287109 35.6910285949707 5.623939514160156 38.15084838867188 7.736549377441406 40.26345062255859 C 9.849151611328125 42.37606048583984 12.3089714050293 44.03458023071289 15.04766845703125 45.19295883178711 C 17.8825798034668 46.39202117919922 20.89458084106445 47 24 47 C 27.10541915893555 47 30.1174201965332 46.39202117919922 32.95233154296875 45.19295883178711 C 35.6910285949707 44.03458023071289 38.15084838867188 42.37606048583984 40.26345062255859 40.26345062255859 C 42.37606048583984 38.15084838867188 44.03458023071289 35.6910285949707 45.19295883178711 32.95233154296875 C 46.39202117919922 30.1174201965332 47 27.10541915893555 47 24 C 47 20.89458084106445 46.39202117919922 17.8825798034668 45.19295883178711 15.04766845703125 C 44.03458023071289 12.3089714050293 42.37606048583984 9.849151611328125 40.26345062255859 7.736549377441406 C 38.15084838867188 5.623939514160156 35.6910285949707 3.965419769287109 32.95233154296875 2.807041168212891 C 30.1174201965332 1.607978820800781 27.10541915893555 1 24 1 M 24 0 C 37.25482940673828 0 48 10.74517059326172 48 24 C 48 37.25482940673828 37.25482940673828 48 24 48 C 10.74517059326172 48 0 37.25482940673828 0 24 C 0 10.74517059326172 10.74517059326172 0 24 0 Z" stroke="none" fill="#fff"/>
  </g>
  <g id="mic_small" transform="translate(12 12)">
    <rect id="Rechteck_5" data-name="Rechteck 5" width="24" height="24" fill="none"/>
    <path id="Rechteck_63" data-name="Rechteck 63" d="M3.9,0h.5A3.9,3.9,0,0,1,8.3,3.9v7.4a3.9,3.9,0,0,1-3.9,3.9H3.9A3.9,3.9,0,0,1,0,11.3V3.9A3.9,3.9,0,0,1,3.9,0Z" transform="translate(7.849 0.521)" fill="none" stroke="#fff" stroke-miterlimit="10" stroke-width="1"/>
    <path id="Pfad_67" data-name="Pfad 67" d="M16.684,11.061a7.476,7.476,0,0,1-14.952,0" transform="translate(2.793 0.457)" fill="none" stroke="#fff" stroke-miterlimit="10" stroke-width="1"/>
    <line id="Linie_5" data-name="Linie 5" y2="4.485" transform="translate(11.979 18.994)" fill="none" stroke="#fff" stroke-miterlimit="10" stroke-width="1"/>
    <line id="Linie_6" data-name="Linie 6" x1="8.546" transform="translate(7.727 23.479)" fill="none" stroke="#fff" stroke-miterlimit="10" stroke-width="1"/>
    <line id="Linie_8" data-name="Linie 8" y1="18" x2="18" transform="translate(3.001 2.518)" fill="none" stroke="#fff" stroke-width="1"/>
  </g>
</svg>
