<!-- <svg width="24" height="24" viewBox="0 0 24 24" xmlns="http://www.w3.org/2000/svg">
<path fill-rule="evenodd" clip-rule="evenodd" d="M16 6C16 3.79086 14.2091 2 12 2C9.79086 2 8 3.79086 8 6V12C8 13.8666 9.27853 15.4346 11.0076 15.8759C11.0026 15.9166 11 15.958 11 16V17.917C8.16229 17.441 6 14.973 6 12C6 11.4477 5.55228 11 5 11C4.44772 11 4 11.4477 4 12C4 16.0796 7.05369 19.446 11 19.9381V21C11 21.5523 11.4477 22 12 22C12.5523 22 13 21.5523 13 21V19.9381C16.9463 19.446 20 16.0796 20 12C20 11.4477 19.5523 11 19 11C18.4477 11 18 11.4477 18 12C18 14.973 15.8377 17.441 13 17.917V16C13 15.958 12.9974 15.9166 12.9924 15.8759C14.7215 15.4346 16 13.8666 16 12V6ZM12 4C10.8954 4 10 4.89543 10 6V12C10 13.1046 10.8954 14 12 14C13.1046 14 14 13.1046 14 12V6C14 4.89543 13.1046 4 12 4Z" />
</svg> -->

<svg id="Komponente_1832_7" data-name="Komponente 1832 – 7" xmlns="http://www.w3.org/2000/svg" width="48" height="48" viewBox="0 0 48 48">
  <g id="Pfad_109" data-name="Pfad 109" fill="#fff">
    <path d="M 24 47.5 C 20.82729911804199 47.5 17.74976921081543 46.87873077392578 14.85289001464844 45.65346145629883 C 12.05459022521973 44.46987915039062 9.541350364685059 42.77537155151367 7.382989883422852 40.61700820922852 C 5.224629878997803 38.45864868164062 3.530119895935059 35.94541168212891 2.346539974212646 33.14710998535156 C 1.121269941329956 30.25023078918457 0.5 27.17270088195801 0.5 24 C 0.5 20.82729911804199 1.121269941329956 17.74976921081543 2.346539974212646 14.85289001464844 C 3.530119895935059 12.05459022521973 5.224629878997803 9.541350364685059 7.382989883422852 7.382989883422852 C 9.541350364685059 5.224629878997803 12.05459022521973 3.530119895935059 14.85289001464844 2.346539974212646 C 17.74976921081543 1.121269941329956 20.82729911804199 0.5 24 0.5 C 27.17270088195801 0.5 30.25023078918457 1.121269941329956 33.14710998535156 2.346539974212646 C 35.94541168212891 3.530119895935059 38.45864868164062 5.224629878997803 40.61700820922852 7.382989883422852 C 42.77537155151367 9.541350364685059 44.46987915039062 12.05459022521973 45.65346145629883 14.85289001464844 C 46.87873077392578 17.74976921081543 47.5 20.82729911804199 47.5 24 C 47.5 27.17270088195801 46.87873077392578 30.25023078918457 45.65346145629883 33.14710998535156 C 44.46987915039062 35.94541168212891 42.77537155151367 38.45864868164062 40.61700820922852 40.61700820922852 C 38.45864868164062 42.77537155151367 35.94541168212891 44.46987915039062 33.14710998535156 45.65346145629883 C 30.25023078918457 46.87873077392578 27.17270088195801 47.5 24 47.5 Z" stroke="none"/>
    <path d="M 24 1 C 20.89458084106445 1 17.8825798034668 1.607978820800781 15.04766845703125 2.807041168212891 C 12.3089714050293 3.965419769287109 9.849151611328125 5.623939514160156 7.736549377441406 7.736549377441406 C 5.623939514160156 9.849151611328125 3.965419769287109 12.3089714050293 2.807041168212891 15.04766845703125 C 1.607978820800781 17.8825798034668 1 20.89458084106445 1 24 C 1 27.10541915893555 1.607978820800781 30.1174201965332 2.807041168212891 32.95233154296875 C 3.965419769287109 35.6910285949707 5.623939514160156 38.15084838867188 7.736549377441406 40.26345062255859 C 9.849151611328125 42.37606048583984 12.3089714050293 44.03458023071289 15.04766845703125 45.19295883178711 C 17.8825798034668 46.39202117919922 20.89458084106445 47 24 47 C 27.10541915893555 47 30.1174201965332 46.39202117919922 32.95233154296875 45.19295883178711 C 35.6910285949707 44.03458023071289 38.15084838867188 42.37606048583984 40.26345062255859 40.26345062255859 C 42.37606048583984 38.15084838867188 44.03458023071289 35.6910285949707 45.19295883178711 32.95233154296875 C 46.39202117919922 30.1174201965332 47 27.10541915893555 47 24 C 47 20.89458084106445 46.39202117919922 17.8825798034668 45.19295883178711 15.04766845703125 C 44.03458023071289 12.3089714050293 42.37606048583984 9.849151611328125 40.26345062255859 7.736549377441406 C 38.15084838867188 5.623939514160156 35.6910285949707 3.965419769287109 32.95233154296875 2.807041168212891 C 30.1174201965332 1.607978820800781 27.10541915893555 1 24 1 M 24 0 C 37.25482940673828 0 48 10.74517059326172 48 24 C 48 37.25482940673828 37.25482940673828 48 24 48 C 10.74517059326172 48 0 37.25482940673828 0 24 C 0 10.74517059326172 10.74517059326172 0 24 0 Z" stroke="none" fill="#fff"/>
  </g>
  <g id="mic_small" transform="translate(12 12)">
    <rect id="Rechteck_5" data-name="Rechteck 5" width="24" height="24" fill="none"/>
    <path id="Rechteck_63" data-name="Rechteck 63" d="M3.9,0h.5A3.9,3.9,0,0,1,8.3,3.9v7.4a3.9,3.9,0,0,1-3.9,3.9H3.9A3.9,3.9,0,0,1,0,11.3V3.9A3.9,3.9,0,0,1,3.9,0Z" transform="translate(7.849 0.521)" fill="none" stroke="#000" stroke-miterlimit="10" stroke-width="1"/>
    <path id="Pfad_67" data-name="Pfad 67" d="M16.684,11.061a7.476,7.476,0,0,1-14.952,0" transform="translate(2.793 0.457)" fill="none" stroke="#000" stroke-miterlimit="10" stroke-width="1"/>
    <line id="Linie_5" data-name="Linie 5" y2="4.485" transform="translate(11.979 18.994)" fill="none" stroke="#000" stroke-miterlimit="10" stroke-width="1"/>
    <line id="Linie_6" data-name="Linie 6" x1="8.546" transform="translate(7.727 23.479)" fill="none" stroke="#000" stroke-miterlimit="10" stroke-width="1"/>
  </g>
</svg>
