<!-- <svg width="22" height="22" viewBox="0 0 22 22" xmlns="http://www.w3.org/2000/svg">
<path fill-rule="evenodd" clip-rule="evenodd" d="M9.00473 2.17027L8.4293 3.89657L7.79479 4.15939L6.16722 3.34561C5.46141 2.9927 4.60896 3.13103 4.05096 3.68903L3.68897 4.05103C3.13097 4.60902 2.99264 5.46147 3.34555 6.16728L4.16219 7.79134L3.89712 8.42916L2.17021 9.0048C1.42158 9.25434 0.916626 9.95493 0.916626 10.744V11.256C0.916626 12.0451 1.42158 12.7457 2.17021 12.9952L3.89651 13.5707L4.15933 14.2052L3.34555 15.8328C2.99264 16.5386 3.13097 17.391 3.68897 17.949L4.05096 18.311C4.60896 18.869 5.46141 19.0073 6.16722 18.6544L7.79128 17.8378L8.4291 18.1029L9.00473 19.8298C9.25428 20.5784 9.95487 21.0834 10.744 21.0834H11.2559C12.0451 21.0834 12.7456 20.5784 12.9952 19.8298L13.5706 18.1035L14.2051 17.8406L15.8327 18.6544C16.5385 19.0073 17.391 18.869 17.949 18.311L18.311 17.949C18.8689 17.391 19.0073 16.5386 18.6544 15.8328L17.8377 14.2087L18.1028 13.5709L19.8297 12.9952C20.5783 12.7457 21.0833 12.0451 21.0833 11.256V10.744C21.0833 9.95493 20.5783 9.25434 19.8297 9.0048L18.1036 8.43221L17.8404 7.79528L18.6544 6.16728C19.0073 5.46147 18.8689 4.60902 18.311 4.05103L17.949 3.68903C17.391 3.13103 16.5385 2.9927 15.8327 3.34561L14.2086 4.16225L13.5708 3.89718L12.9952 2.17027C12.7456 1.42164 12.0451 0.916687 11.2559 0.916687H10.744C9.95487 0.916687 9.25428 1.42164 9.00473 2.17027ZM7.72332 6.17339L9.90395 5.27014L10.744 2.75002H11.2559L12.0958 5.26952L14.2813 6.17779L16.6526 4.98539L17.0146 5.34739L15.8268 7.72295L16.7297 9.90805L19.25 10.7441V11.256L16.7305 12.0958L15.8222 14.2813L17.0146 16.6527L16.6526 17.0147L14.2766 15.8267L12.096 16.7299L11.2559 19.25H10.744L9.90415 16.7305L7.71864 15.8223L5.34733 17.0147L4.98533 16.6527L6.17332 14.2767L5.27008 12.096L2.74996 11.256V10.7441L5.26946 9.90421L6.17773 7.7187L4.98533 5.34739L5.34733 4.98539L7.72332 6.17339ZM11 15.5834C8.46865 15.5834 6.41663 13.5313 6.41663 11C6.41663 8.46872 8.46865 6.41669 11 6.41669C13.5313 6.41669 15.5833 8.46872 15.5833 11C15.5833 13.5313 13.5313 15.5834 11 15.5834ZM13.75 11C13.75 12.5188 12.5187 13.75 11 13.75C9.48118 13.75 8.24996 12.5188 8.24996 11C8.24996 9.48124 9.48118 8.25002 11 8.25002C12.5187 8.25002 13.75 9.48124 13.75 11Z" />
</svg>
 -->

 <svg width="48" height="48" viewBox="0 0 48 48" version="1.1" xmlns="http://www.w3.org/2000/svg">
    <title>
        settings-large
    </title>
    <path d="M27.4,5.5 L27.4,11 C28.6,11.3 29.8,11.8 30.9,12.4 L34.8,8.5 L39.6,13.3 L35.7,17.2 C36.3,18.3 36.8,19.4 37.1,20.7 L42.6,20.7 L42.6,27.4 L37,27.4 C36.7,28.6 36.2,29.8 35.6,30.9 L39.5,34.8 L34.7,39.6 L30.8,35.7 C29.7,36.3 28.6,36.8 27.3,37.1 L27.3,42.6 L20.6,42.6 L20.6,37 C19.4,36.7 18.2,36.2 17.1,35.6 L13.2,39.5 L8.4,34.7 L12.3,30.8 C11.7,29.7 11.2,28.6 10.9,27.3 L5.5,27.3 L5.5,20.6 L11,20.6 C11.3,19.4 11.8,18.2 12.4,17.1 L8.5,13.2 L13.3,8.4 L17.2,12.3 C18.3,11.7 19.4,11.2 20.7,10.9 L20.7,5.5 L27.4,5.5 Z M24,17.5 C20.4,17.5 17.5,20.4 17.5,24 C17.5,27.6 20.4,30.5 24,30.5 C27.6,30.5 30.5,27.6 30.5,24 C30.5,20.4 27.6,17.5 24,17.5 L24,17.5 Z" stroke="currentColor" stroke-width="1" fill="none" fill-rule="evenodd"/>
</svg>