
<!-- Generated by IcoMoon.io 
<svg version="1.1" xmlns="http://www.w3.org/2000/svg" width="32" height="32" viewBox="0 0 32 32">
<title>share-desktop</title>
<path d="M28 22.688v-16h-24v16h24zM28 4c1.438 0 2.688 1.25 2.688 2.688l-0.063 16c0 1.438-1.188 2.625-2.625 2.625h-6.688v2.688h-10.625v-2.688h-6.688c-1.438 0-2.688-1.188-2.688-2.625v-16c0-1.438 1.25-2.688 2.688-2.688h24z"></path>


<svg width="15" height="15" viewBox="0 0 15 15" fill="none" xmlns="http://www.w3.org/2000/svg">
<path fill-rule="evenodd" clip-rule="evenodd" d="M2.5 1.875H12.5C13.1904 1.875 13.75 2.43464 13.75 3.125V10.625C13.75 11.3154 13.1904 11.875 12.5 11.875H10.625C10.9702 11.875 11.25 12.1548 11.25 12.5C11.25 12.8452 10.9702 13.125 10.625 13.125H4.375C4.02982 13.125 3.75 12.8452 3.75 12.5C3.75 12.1548 4.02982 11.875 4.375 11.875H2.5C1.80964 11.875 1.25 11.3154 1.25 10.625V3.125C1.25 2.43464 1.80964 1.875 2.5 1.875ZM2.5 3.125V10.625H12.5V3.125H2.5ZM8.125 5.625C5.56818 5.625 4.375 6.71875 4.375 10C5.73864 7.34375 8.125 7.5 8.125 7.5V8.03605C8.125 8.45615 8.61169 8.68897 8.93877 8.42534L10.767 6.95178C11.0153 6.75164 11.0153 6.37333 10.767 6.17319L8.93877 4.69963C8.61169 4.436 8.125 4.66882 8.125 5.08892V5.625Z" fill="white"/> -->


<!-- Generator: Adobe Illustrator 25.0.0, SVG Export Plug-In . SVG Version: 6.00 Build 0)  -->
<?xml version="1.0" encoding="UTF-8"?>
<svg width="45px" height="45px" viewBox="0 0 45 45" version="1.1" xmlns="http://www.w3.org/2000/svg" xmlns:xlink="http://www.w3.org/1999/xlink">
    <title>handraise-ico copy 2</title>
    <defs>
        <filter id="filter-1">
            <feColorMatrix in="SourceGraphic" type="matrix" values="0 0 0 0 0.000000 0 0 0 0 0.000000 0 0 0 0 0.000000 0 0 0 1.000000 0"></feColorMatrix>
        </filter>
    </defs>
    <g id="Desktop-Layouts" stroke="none" stroke-width="1" fill="none" fill-rule="evenodd">
        <g id="dCLX_mytraining_LOT_presentation-(Userview)-NEW" transform="translate(-1017.000000, -83.000000)">
            <g id="Nav-Bar" transform="translate(55.000000, 71.000000)">
                <g id="controls" transform="translate(854.000000, 11.000000)">
                    <g id="steuerung" transform="translate(0.000000, 1.000000)">
                        <g id="handraise-ico-copy-2" transform="translate(108.000000, 0.000000)">
                            <circle id="Oval" fill="#FFFFFF" cx="22.5" cy="22.5" r="22.5"></circle>
                            <g id="screen-share" transform="translate(11.000000, 11.000000)" filter="url(#filter-1)">
                                <g>
                                    <polyline id="box" stroke="#000000" stroke-linejoin="round" transform="translate(11.500000, 10.500000) scale(1, -1) translate(-11.500000, -10.500000) " points="15.8436651 3 22 3 22 18 1 18 1 3 7.125 3"></polyline>
                                    <path d="M11.5,21.5 L11.5,9.00126652 M8,12.5 L11.5,9 L15,12.5" id="arrow" stroke="#000000"></path>
                                </g>
                            </g>
                        </g>
                    </g>
                </g>
            </g>
        </g>
    </g>
</svg>