<!-- Generated by IcoMoon.io 
<svg version="1.1" xmlns="http://www.w3.org/2000/svg" width="32" height="32" viewBox="0 0 32 32">
<title>share-desktop</title>
<path d="M28 22.688v-16h-24v16h24zM28 4c1.438 0 2.688 1.25 2.688 2.688l-0.063 16c0 1.438-1.188 2.625-2.625 2.625h-6.688v2.688h-10.625v-2.688h-6.688c-1.438 0-2.688-1.188-2.688-2.625v-16c0-1.438 1.25-2.688 2.688-2.688h24z"></path>
</svg>
-->

<!-- <svg width="24px" height="24px" viewBox="0 0 24 24" version="1.1" xmlns="http://www.w3.org/2000/svg" xmlns:xlink="http://www.w3.org/1999/xlink">
    <title>share-desktop</title>
    <g id="Screenshare" stroke="none" stroke-width="1" fill="none" fill-rule="evenodd">
        <polyline id="box" stroke="#FFF" stroke-linejoin="round" transform="translate(11.500000, 10.500000) scale(1, -1) translate(-11.500000, -10.500000) " points="15.8436651 3 22 3 22 18 1 18 1 3 7.125 3"></polyline>
        <path d="M11.5,21.5 L11.5,9.00126652 M8,12.5 L11.5,9 L15,12.5" stroke="#FFF"></path>
    </g>
</svg> -->


<!-- Generator: Adobe Illustrator 25.0.0, SVG Export Plug-In . SVG Version: 6.00 Build 0)  -->
<svg id="Komponente_1834_5" data-name="Komponente 1834 – 5" xmlns="http://www.w3.org/2000/svg" width="48" height="48" viewBox="0 0 48 48">
  <g id="Ellipse_4" data-name="Ellipse 4" fill="none" stroke="#fff" stroke-width="1">
    <circle cx="24" cy="24" r="24" stroke="none"/>
    <circle cx="24" cy="24" r="23.5" fill="none"/>
  </g>
  <g id="share_small" transform="translate(12 12)">
    <rect id="Rechteck_5" data-name="Rechteck 5" width="24" height="24" fill="none"/>
    <path id="Pfad_82" data-name="Pfad 82" d="M13.826-1.269H19.56V-15H0V-1.269H5.7" transform="translate(2.22 18.385)" fill="none" stroke="#fff" stroke-width="1"/>
    <path id="Pfad_83" data-name="Pfad 83" d="M3.5,12.5V0M0,3.5,3.5,0,7,3.5" transform="translate(8.499 8.116)" fill="none" stroke="#fff" stroke-width="1"/>
  </g>
</svg>
