<!-- <svg width="24" height="24" viewBox="0 0 24 24" xmlns="http://www.w3.org/2000/svg">
<path fill-rule="evenodd" clip-rule="evenodd" d="M20 2H4C2.89543 2 2 2.89543 2 4V20C2 21.1046 2.89543 22 4 22H4.35914H10.2813H10.9771H18.8331H20C21.1046 22 22 21.1046 22 20V4C22 2.89543 21.1046 2 20 2ZM9.09577 14.7606L11.2425 17.8716L14.4268 10.5207C14.6463 10.014 15.2351 9.78109 15.7419 10.0006C15.9557 10.0933 16.1305 10.2577 16.2361 10.4656L20 17.8803V4H4V19.7597L7.44965 14.7606C7.76332 14.3061 8.3861 14.1918 8.84066 14.5055C8.94046 14.5744 9.02691 14.6608 9.09577 14.7606ZM9 12C7.34315 12 6 10.6569 6 9C6 7.34315 7.34315 6 9 6C10.6569 6 12 7.34315 12 9C12 10.6569 10.6569 12 9 12ZM10 9C10 9.55228 9.55228 10 9 10C8.44772 10 8 9.55228 8 9C8 8.44772 8.44772 8 9 8C9.55228 8 10 8.44772 10 9ZM15.416 13.2686L18.8331 20H12.5001L15.416 13.2686ZM8.27271 17.0893L10.2813 20H6.26417L8.27271 17.0893Z"/>
</svg>
 -->

 <svg width="48" height="48" viewBox="0 0 48 48" version="1.1" xmlns="http://www.w3.org/2000/svg">
    <title>
        photo-large
    </title>
    <path d="M1.5,6.5 L46.5,6.5 L46.5,40.5 L1.5,40.5 L1.5,6.5 Z M1.5,40.5 L19.5,22.5 L28.5,31.5 L37.5,22.5 L46.5,31.5 M11,20.5 C13.4852814,20.5 15.5,18.4852814 15.5,16 C15.5,13.5147186 13.4852814,11.5 11,11.5 C8.51471863,11.5 6.5,13.5147186 6.5,16 C6.5,18.4852814 8.51471863,20.5 11,20.5 Z" stroke="currentColor" stroke-width="1" fill="none" fill-rule="evenodd"/>
</svg>
